<?xml version="1.0" encoding="UTF-8"?><svg xmlns="http://www.w3.org/2000/svg" viewBox="0 0 146.47 204.77"><g id="a"/><g id="b"><path d="M131.86,124.71c-1.54,0-2.98,.98-4.36,2.61,2.29-23.99-7.49-35.96-7.49-35.96,0,0-3.11,24.68-11.28,24.68-3.14,0-5.33-2.54-5.52-6.05-.33-6.01,7.44-9.83,7.44-22.13,0-16.65-24.98-28.53-17.76-50.65,0,0-15.99,19.05-6.57,44.24,0,0-19.54-26.42-8.47-47.16C88.53,14.28,81.9,0,81.9,0c-1.35,28.36-27.99,31.29-27.99,55.9s19.01,48.54,5.69,52.48c-10.52,3.11-8.9-18.18-8.9-25.91,0-23.83-18.81-30.03-18.81-30.03,6.06,15.04,6.54,29.01,.85,32.36-5.99,3.54-11.59-6.72-11.59-6.72-4.5,10.76-4.57,38.81-2,49.45-1.44-1.76-2.93-2.83-4.54-2.83-7.63,0-17.33,5.46-13.89,15.57,2.12,6.23,3.4,12.27,5.19,14.65,1.73,2.29,14.56,14.86,18.67,14.86,4.65,0,5.06-4,4.56-6.29,1.19,4.22,3.12,8.41,6.65,12.67,6.7,8.08,25.83,28.6,37.45,28.6h0c11.33,0,30.73-20.52,37.43-28.6,3.66-4.41,5.6-8.74,6.77-13.11-.66,2.17-.52,6.73,4.44,6.73,4.1,0,16.94-12.57,18.67-14.86,1.8-2.38,3.07-8.43,5.19-14.65,3.45-10.11-6.25-15.57-13.89-15.57Zm-64.93,29.08c-1.5,6.75-11.79,7.13-18.54,5.63-15.37-3.41-19.06-19.5-21.21-24.6,16.98-3.46,41.41,11.48,39.74,18.97Zm50.67,8.83c-.05,.12-.1,.25-.14,.39,.05-.19,.1-.39,.14-.58v.19Zm-19.53-3.21c-6.75,1.5-17.04,1.12-18.54-5.63-1.66-7.49,22.77-22.44,39.74-18.97-2.14,5.09-5.83,21.18-21.21,24.6Z"/></g></svg>